<?xml version="1.0" encoding="utf-8" standalone="no"?>
<!DOCTYPE svg PUBLIC "-//W3C//DTD SVG 1.1//EN"
  "http://www.w3.org/Graphics/SVG/1.1/DTD/svg11.dtd">
<svg xmlns:xlink="http://www.w3.org/1999/xlink" width="1001.112187pt" height="353.274265pt" viewBox="0 0 1001.112187 353.274265" xmlns="http://www.w3.org/2000/svg" version="1.1">
 <metadata>
  <rdf:RDF xmlns:dc="http://purl.org/dc/elements/1.1/" xmlns:cc="http://creativecommons.org/ns#" xmlns:rdf="http://www.w3.org/1999/02/22-rdf-syntax-ns#">
   <cc:Work>
    <dc:type rdf:resource="http://purl.org/dc/dcmitype/StillImage"/>
    <dc:date>2026-10-03T00:23:05.527141</dc:date>
    <dc:format>image/svg+xml</dc:format>
    <dc:creator>
     <cc:Agent>
      <dc:title>Matplotlib v3.11.1, https://matplotlib.org/</dc:title>
     </cc:Agent>
    </dc:creator>
   </cc:Work>
  </rdf:RDF>
 </metadata>
 <defs>
  <style type="text/css">*{stroke-linejoin: round; stroke-linecap: butt}</style>
 </defs>
 <g id="figure_1">
  <g id="patch_1">
   <path d="M 0 353.274265 
L 1001.112187 353.274265 
L 1001.112187 0 
L 0 0 
z
" style="fill: #ffffff"/>
  </g>
  <g id="axes_1">
   <g id="patch_2">
    <path d="M 46.446484 303.602088 
L 993.912188 303.602088 
L 993.912188 23.308125 
L 46.446484 23.308125 
z
" style="fill: #ffffff"/>
   </g>
   <g id="matplotlib.axis_1">
    <g id="xtick_1">
     <g id="line2d_1">
      <defs>
       <path id="m15bd7c608a" d="M 0 0 
L 0 3.5 
" style="stroke: #000000; stroke-width: 0.8"/>
      </defs>
      <g>
       <use xlink:href="#m15bd7c608a" x="89.513107" y="303.602088" style="stroke: #000000; stroke-width: 0.8"/>
      </g>
     </g>
     <g id="text_1">
      <text style="font-size: 10px; font-family: 'Microsoft YaHei'" transform="translate(77.518808 344.28233) rotate(-45)">2025-12</text>
     </g>
    </g>
    <g id="xtick_2">
     <g id="line2d_2">
      <g>
       <use xlink:href="#m15bd7c608a" x="197.179664" y="303.602088" style="stroke: #000000; stroke-width: 0.8"/>
      </g>
     </g>
     <g id="text_2">
      <text style="font-size: 10px; font-family: 'Microsoft YaHei'" transform="translate(185.185366 344.28233) rotate(-45)">2026-01</text>
     </g>
    </g>
    <g id="xtick_3">
     <g id="line2d_3">
      <g>
       <use xlink:href="#m15bd7c608a" x="304.846222" y="303.602088" style="stroke: #000000; stroke-width: 0.8"/>
      </g>
     </g>
     <g id="text_3">
      <text style="font-size: 10px; font-family: 'Microsoft YaHei'" transform="translate(292.851923 344.28233) rotate(-45)">2026-02</text>
     </g>
    </g>
    <g id="xtick_4">
     <g id="line2d_4">
      <g>
       <use xlink:href="#m15bd7c608a" x="412.512779" y="303.602088" style="stroke: #000000; stroke-width: 0.8"/>
      </g>
     </g>
     <g id="text_4">
      <text style="font-size: 10px; font-family: 'Microsoft YaHei'" transform="translate(400.51848 344.28233) rotate(-45)">2026-03</text>
     </g>
    </g>
    <g id="xtick_5">
     <g id="line2d_5">
      <g>
       <use xlink:href="#m15bd7c608a" x="520.179336" y="303.602088" style="stroke: #000000; stroke-width: 0.8"/>
      </g>
     </g>
     <g id="text_5">
      <text style="font-size: 10px; font-family: 'Microsoft YaHei'" transform="translate(508.185037 344.28233) rotate(-45)">2026-04</text>
     </g>
    </g>
    <g id="xtick_6">
     <g id="line2d_6">
      <g>
       <use xlink:href="#m15bd7c608a" x="627.845893" y="303.602088" style="stroke: #000000; stroke-width: 0.8"/>
      </g>
     </g>
     <g id="text_6">
      <text style="font-size: 10px; font-family: 'Microsoft YaHei'" transform="translate(615.851594 344.28233) rotate(-45)">2026-05</text>
     </g>
    </g>
    <g id="xtick_7">
     <g id="line2d_7">
      <g>
       <use xlink:href="#m15bd7c608a" x="735.51245" y="303.602088" style="stroke: #000000; stroke-width: 0.8"/>
      </g>
     </g>
     <g id="text_7">
      <text style="font-size: 10px; font-family: 'Microsoft YaHei'" transform="translate(723.518152 344.28233) rotate(-45)">2026-06</text>
     </g>
    </g>
    <g id="xtick_8">
     <g id="line2d_8">
      <g>
       <use xlink:href="#m15bd7c608a" x="843.179007" y="303.602088" style="stroke: #000000; stroke-width: 0.8"/>
      </g>
     </g>
     <g id="text_8">
      <text style="font-size: 10px; font-family: 'Microsoft YaHei'" transform="translate(831.184709 344.28233) rotate(-45)">2026-07</text>
     </g>
    </g>
    <g id="xtick_9">
     <g id="line2d_9">
      <g>
       <use xlink:href="#m15bd7c608a" x="950.845565" y="303.602088" style="stroke: #000000; stroke-width: 0.8"/>
      </g>
     </g>
     <g id="text_9">
      <text style="font-size: 10px; font-family: 'Microsoft YaHei'" transform="translate(938.851266 344.28233) rotate(-45)">2026-08</text>
     </g>
    </g>
   </g>
   <g id="matplotlib.axis_2">
    <g id="ytick_1">
     <g id="line2d_10">
      <path d="M 46.446484 290.861453 
L 993.912188 290.861453 
" clip-path="url(#p4fd43e2e45)" style="fill: none; stroke: #b0b0b0; stroke-opacity: 0.2; stroke-width: 0.8; stroke-linecap: square"/>
     </g>
     <g id="line2d_11">
      <defs>
       <path id="m2e5ac1a424" d="M 0 0 
L -3.5 0 
" style="stroke: #000000; stroke-width: 0.8"/>
      </defs>
      <g>
       <use xlink:href="#m2e5ac1a424" x="46.446484" y="290.861453" style="stroke: #000000; stroke-width: 0.8"/>
      </g>
     </g>
     <g id="text_10">
      <text style="font-size: 10px; font-family: 'Microsoft YaHei'; text-anchor: end" x="39.446484" y="294.921512" transform="rotate(-0 39.446484 294.921512)">0</text>
     </g>
    </g>
    <g id="ytick_2">
     <g id="line2d_12">
      <path d="M 46.446484 233.503275 
L 993.912188 233.503275 
" clip-path="url(#p4fd43e2e45)" style="fill: none; stroke: #b0b0b0; stroke-opacity: 0.2; stroke-width: 0.8; stroke-linecap: square"/>
     </g>
     <g id="line2d_13">
      <g>
       <use xlink:href="#m2e5ac1a424" x="46.446484" y="233.503275" style="stroke: #000000; stroke-width: 0.8"/>
      </g>
     </g>
     <g id="text_11">
      <text style="font-size: 10px; font-family: 'Microsoft YaHei'; text-anchor: end" x="39.446484" y="237.563333" transform="rotate(-0 39.446484 237.563333)">200</text>
     </g>
    </g>
    <g id="ytick_3">
     <g id="line2d_14">
      <path d="M 46.446484 176.145096 
L 993.912188 176.145096 
" clip-path="url(#p4fd43e2e45)" style="fill: none; stroke: #b0b0b0; stroke-opacity: 0.2; stroke-width: 0.8; stroke-linecap: square"/>
     </g>
     <g id="line2d_15">
      <g>
       <use xlink:href="#m2e5ac1a424" x="46.446484" y="176.145096" style="stroke: #000000; stroke-width: 0.8"/>
      </g>
     </g>
     <g id="text_12">
      <text style="font-size: 10px; font-family: 'Microsoft YaHei'; text-anchor: end" x="39.446484" y="180.205155" transform="rotate(-0 39.446484 180.205155)">400</text>
     </g>
    </g>
    <g id="ytick_4">
     <g id="line2d_16">
      <path d="M 46.446484 118.786918 
L 993.912188 118.786918 
" clip-path="url(#p4fd43e2e45)" style="fill: none; stroke: #b0b0b0; stroke-opacity: 0.2; stroke-width: 0.8; stroke-linecap: square"/>
     </g>
     <g id="line2d_17">
      <g>
       <use xlink:href="#m2e5ac1a424" x="46.446484" y="118.786918" style="stroke: #000000; stroke-width: 0.8"/>
      </g>
     </g>
     <g id="text_13">
      <text style="font-size: 10px; font-family: 'Microsoft YaHei'; text-anchor: end" x="39.446484" y="122.846976" transform="rotate(-0 39.446484 122.846976)">600</text>
     </g>
    </g>
    <g id="ytick_5">
     <g id="line2d_18">
      <path d="M 46.446484 61.428739 
L 993.912188 61.428739 
" clip-path="url(#p4fd43e2e45)" style="fill: none; stroke: #b0b0b0; stroke-opacity: 0.2; stroke-width: 0.8; stroke-linecap: square"/>
     </g>
     <g id="line2d_19">
      <g>
       <use xlink:href="#m2e5ac1a424" x="46.446484" y="61.428739" style="stroke: #000000; stroke-width: 0.8"/>
      </g>
     </g>
     <g id="text_14">
      <text style="font-size: 10px; font-family: 'Microsoft YaHei'; text-anchor: end" x="39.446484" y="65.488798" transform="rotate(-0 39.446484 65.488798)">800</text>
     </g>
    </g>
    <g id="text_15">
     <text style="font-size: 10px; font-family: 'Microsoft YaHei'; text-anchor: middle" x="15.320117" y="163.455106" transform="rotate(-90 15.320117 163.455106)">kEUR/MW</text>
    </g>
   </g>
   <g id="line2d_20">
    <path d="M 89.513107 38.242824 
L 197.179664 36.04876 
L 304.846222 40.281259 
L 412.512779 46.304001 
L 520.179336 56.547548 
L 627.845893 62.28446 
L 735.51245 65.281509 
L 843.179007 70.192227 
L 950.845565 75.70432 
" clip-path="url(#p4fd43e2e45)" style="fill: none; stroke: #2457a7; stroke-width: 1.5; stroke-linecap: square"/>
    <defs>
     <path id="mad9ccf1807" d="M 0 1.5 
C 0.397805 1.5 0.77937 1.341951 1.06066 1.06066 
C 1.341951 0.77937 1.5 0.397805 1.5 0 
C 1.5 -0.397805 1.341951 -0.77937 1.06066 -1.06066 
C 0.77937 -1.341951 0.397805 -1.5 0 -1.5 
C -0.397805 -1.5 -0.77937 -1.341951 -1.06066 -1.06066 
C -1.341951 -0.77937 -1.5 -0.397805 -1.5 0 
C -1.5 0.397805 -1.341951 0.77937 -1.06066 1.06066 
C -0.77937 1.341951 -0.397805 1.5 0 1.5 
z
" style="stroke: #2457a7"/>
    </defs>
    <g clip-path="url(#p4fd43e2e45)">
     <use xlink:href="#mad9ccf1807" x="89.513107" y="38.242824" style="fill: #2457a7; stroke: #2457a7"/>
     <use xlink:href="#mad9ccf1807" x="197.179664" y="36.04876" style="fill: #2457a7; stroke: #2457a7"/>
     <use xlink:href="#mad9ccf1807" x="304.846222" y="40.281259" style="fill: #2457a7; stroke: #2457a7"/>
     <use xlink:href="#mad9ccf1807" x="412.512779" y="46.304001" style="fill: #2457a7; stroke: #2457a7"/>
     <use xlink:href="#mad9ccf1807" x="520.179336" y="56.547548" style="fill: #2457a7; stroke: #2457a7"/>
     <use xlink:href="#mad9ccf1807" x="627.845893" y="62.28446" style="fill: #2457a7; stroke: #2457a7"/>
     <use xlink:href="#mad9ccf1807" x="735.51245" y="65.281509" style="fill: #2457a7; stroke: #2457a7"/>
     <use xlink:href="#mad9ccf1807" x="843.179007" y="70.192227" style="fill: #2457a7; stroke: #2457a7"/>
     <use xlink:href="#mad9ccf1807" x="950.845565" y="75.70432" style="fill: #2457a7; stroke: #2457a7"/>
    </g>
   </g>
   <g id="line2d_21">
    <path d="M 89.513107 57.146968 
L 197.179664 56.317866 
L 304.846222 61.851144 
L 412.512779 69.23253 
L 520.179336 80.233977 
L 627.845893 87.103612 
L 735.51245 90.722759 
L 843.179007 95.685492 
L 950.845565 101.543962 
" clip-path="url(#p4fd43e2e45)" style="fill: none; stroke: #d48812; stroke-width: 1.5; stroke-linecap: square"/>
    <defs>
     <path id="m01856fd872" d="M 0 1.5 
C 0.397805 1.5 0.77937 1.341951 1.06066 1.06066 
C 1.341951 0.77937 1.5 0.397805 1.5 0 
C 1.5 -0.397805 1.341951 -0.77937 1.06066 -1.06066 
C 0.77937 -1.341951 0.397805 -1.5 0 -1.5 
C -0.397805 -1.5 -0.77937 -1.341951 -1.06066 -1.06066 
C -1.341951 -0.77937 -1.5 -0.397805 -1.5 0 
C -1.5 0.397805 -1.341951 0.77937 -1.06066 1.06066 
C -0.77937 1.341951 -0.397805 1.5 0 1.5 
z
" style="stroke: #d48812"/>
    </defs>
    <g clip-path="url(#p4fd43e2e45)">
     <use xlink:href="#m01856fd872" x="89.513107" y="57.146968" style="fill: #d48812; stroke: #d48812"/>
     <use xlink:href="#m01856fd872" x="197.179664" y="56.317866" style="fill: #d48812; stroke: #d48812"/>
     <use xlink:href="#m01856fd872" x="304.846222" y="61.851144" style="fill: #d48812; stroke: #d48812"/>
     <use xlink:href="#m01856fd872" x="412.512779" y="69.23253" style="fill: #d48812; stroke: #d48812"/>
     <use xlink:href="#m01856fd872" x="520.179336" y="80.233977" style="fill: #d48812; stroke: #d48812"/>
     <use xlink:href="#m01856fd872" x="627.845893" y="87.103612" style="fill: #d48812; stroke: #d48812"/>
     <use xlink:href="#m01856fd872" x="735.51245" y="90.722759" style="fill: #d48812; stroke: #d48812"/>
     <use xlink:href="#m01856fd872" x="843.179007" y="95.685492" style="fill: #d48812; stroke: #d48812"/>
     <use xlink:href="#m01856fd872" x="950.845565" y="101.543962" style="fill: #d48812; stroke: #d48812"/>
    </g>
   </g>
   <g id="line2d_22">
    <path d="M 89.513107 81.634819 
L 197.179664 82.039253 
L 304.846222 88.758729 
L 412.512779 97.336022 
L 520.179336 108.936811 
L 627.845893 116.789605 
L 735.51245 120.954982 
L 843.179007 125.831123 
L 950.845565 131.828035 
" clip-path="url(#p4fd43e2e45)" style="fill: none; stroke: #5e4a9b; stroke-width: 1.5; stroke-linecap: square"/>
    <defs>
     <path id="m8f13074856" d="M 0 1.5 
C 0.397805 1.5 0.77937 1.341951 1.06066 1.06066 
C 1.341951 0.77937 1.5 0.397805 1.5 0 
C 1.5 -0.397805 1.341951 -0.77937 1.06066 -1.06066 
C 0.77937 -1.341951 0.397805 -1.5 0 -1.5 
C -0.397805 -1.5 -0.77937 -1.341951 -1.06066 -1.06066 
C -1.341951 -0.77937 -1.5 -0.397805 -1.5 0 
C -1.5 0.397805 -1.341951 0.77937 -1.06066 1.06066 
C -0.77937 1.341951 -0.397805 1.5 0 1.5 
z
" style="stroke: #5e4a9b"/>
    </defs>
    <g clip-path="url(#p4fd43e2e45)">
     <use xlink:href="#m8f13074856" x="89.513107" y="81.634819" style="fill: #5e4a9b; stroke: #5e4a9b"/>
     <use xlink:href="#m8f13074856" x="197.179664" y="82.039253" style="fill: #5e4a9b; stroke: #5e4a9b"/>
     <use xlink:href="#m8f13074856" x="304.846222" y="88.758729" style="fill: #5e4a9b; stroke: #5e4a9b"/>
     <use xlink:href="#m8f13074856" x="412.512779" y="97.336022" style="fill: #5e4a9b; stroke: #5e4a9b"/>
     <use xlink:href="#m8f13074856" x="520.179336" y="108.936811" style="fill: #5e4a9b; stroke: #5e4a9b"/>
     <use xlink:href="#m8f13074856" x="627.845893" y="116.789605" style="fill: #5e4a9b; stroke: #5e4a9b"/>
     <use xlink:href="#m8f13074856" x="735.51245" y="120.954982" style="fill: #5e4a9b; stroke: #5e4a9b"/>
     <use xlink:href="#m8f13074856" x="843.179007" y="125.831123" style="fill: #5e4a9b; stroke: #5e4a9b"/>
     <use xlink:href="#m8f13074856" x="950.845565" y="131.828035" style="fill: #5e4a9b; stroke: #5e4a9b"/>
    </g>
   </g>
   <g id="line2d_23">
    <path d="M 46.446484 290.861453 
L 993.912188 290.861453 
" clip-path="url(#p4fd43e2e45)" style="fill: none; stroke: #777777; stroke-width: 0.6; stroke-linecap: square"/>
   </g>
   <g id="patch_3">
    <path d="M 46.446484 303.602088 
L 46.446484 23.308125 
" style="fill: none; stroke: #000000; stroke-width: 0.8; stroke-linejoin: miter; stroke-linecap: square"/>
   </g>
   <g id="patch_4">
    <path d="M 993.912188 303.602088 
L 993.912188 23.308125 
" style="fill: none; stroke: #000000; stroke-width: 0.8; stroke-linejoin: miter; stroke-linecap: square"/>
   </g>
   <g id="patch_5">
    <path d="M 46.446484 303.602088 
L 993.912188 303.602088 
" style="fill: none; stroke: #000000; stroke-width: 0.8; stroke-linejoin: miter; stroke-linecap: square"/>
   </g>
   <g id="patch_6">
    <path d="M 46.446484 23.308125 
L 993.912188 23.308125 
" style="fill: none; stroke: #000000; stroke-width: 0.8; stroke-linejoin: miter; stroke-linecap: square"/>
   </g>
   <g id="text_16">
    <text style="font-weight: 700; font-size: 12px; font-family: 'Microsoft YaHei'; text-anchor: start" x="46.446484" y="17.308125" transform="rotate(-0 46.446484 17.308125)">滚动12个自然月 · 三个独立优化情景</text>
   </g>
   <g id="legend_1">
    <g id="line2d_24">
     <path d="M 916.618438 147.093778 
L 926.618438 147.093778 
L 936.618438 147.093778 
" style="fill: none; stroke: #2457a7; stroke-width: 1.5; stroke-linecap: square"/>
     <g>
      <use xlink:href="#mad9ccf1807" x="926.618438" y="147.093778" style="fill: #2457a7; stroke: #2457a7"/>
     </g>
    </g>
    <g id="text_17">
     <text style="font-size: 10px; font-family: 'Microsoft YaHei'; text-anchor: start" x="944.618438" y="150.593778" transform="rotate(-0 944.618438 150.593778)">p=100%</text>
    </g>
    <g id="line2d_25">
     <path d="M 916.618438 162.748075 
L 926.618438 162.748075 
L 936.618438 162.748075 
" style="fill: none; stroke: #d48812; stroke-width: 1.5; stroke-linecap: square"/>
     <g>
      <use xlink:href="#m01856fd872" x="926.618438" y="162.748075" style="fill: #d48812; stroke: #d48812"/>
     </g>
    </g>
    <g id="text_18">
     <text style="font-size: 10px; font-family: 'Microsoft YaHei'; text-anchor: start" x="944.618438" y="166.248075" transform="rotate(-0 944.618438 166.248075)">p=80%</text>
    </g>
    <g id="line2d_26">
     <path d="M 916.618438 178.402372 
L 926.618438 178.402372 
L 936.618438 178.402372 
" style="fill: none; stroke: #5e4a9b; stroke-width: 1.5; stroke-linecap: square"/>
     <g>
      <use xlink:href="#m8f13074856" x="926.618438" y="178.402372" style="fill: #5e4a9b; stroke: #5e4a9b"/>
     </g>
    </g>
    <g id="text_19">
     <text style="font-size: 10px; font-family: 'Microsoft YaHei'; text-anchor: start" x="944.618438" y="181.902372" transform="rotate(-0 944.618438 181.902372)">p=60%</text>
    </g>
   </g>
  </g>
 </g>
 <defs>
  <clipPath id="p4fd43e2e45">
   <rect x="46.446484" y="23.308125" width="947.465703" height="280.293963"/>
  </clipPath>
 </defs>
</svg>
