<?xml version="1.0" encoding="utf-8" standalone="no"?>
<!DOCTYPE svg PUBLIC "-//W3C//DTD SVG 1.1//EN"
  "http://www.w3.org/Graphics/SVG/1.1/DTD/svg11.dtd">
<svg xmlns:xlink="http://www.w3.org/1999/xlink" width="1001.320312pt" height="377.866575pt" viewBox="0 0 1001.320312 377.866575" xmlns="http://www.w3.org/2000/svg" version="1.1">
 <metadata>
  <rdf:RDF xmlns:dc="http://purl.org/dc/elements/1.1/" xmlns:cc="http://creativecommons.org/ns#" xmlns:rdf="http://www.w3.org/1999/02/22-rdf-syntax-ns#">
   <cc:Work>
    <dc:type rdf:resource="http://purl.org/dc/dcmitype/StillImage"/>
    <dc:date>2026-10-02T23:36:33.209800</dc:date>
    <dc:format>image/svg+xml</dc:format>
    <dc:creator>
     <cc:Agent>
      <dc:title>Matplotlib v3.11.1, https://matplotlib.org/</dc:title>
     </cc:Agent>
    </dc:creator>
   </cc:Work>
  </rdf:RDF>
 </metadata>
 <defs>
  <style type="text/css">*{stroke-linejoin: round; stroke-linecap: butt}</style>
 </defs>
 <g id="figure_1">
  <g id="patch_1">
   <path d="M 0 377.866575 
L 1001.320312 377.866575 
L 1001.320312 0 
L 0 0 
z
" style="fill: #ffffff"/>
  </g>
  <g id="axes_1">
   <g id="patch_2">
    <path d="M 58.174609 283.284966 
L 994.120313 283.284966 
L 994.120313 33.248125 
L 58.174609 33.248125 
z
" style="fill: #ffffff"/>
   </g>
   <g id="matplotlib.axis_1">
    <g id="xtick_1">
     <g id="line2d_1">
      <defs>
       <path id="mcc00450b9b" d="M 0 0 
L 0 3.5 
" style="stroke: #000000; stroke-width: 0.8"/>
      </defs>
      <g>
       <use xlink:href="#mcc00450b9b" x="116.250532" y="283.284966" style="stroke: #000000; stroke-width: 0.8"/>
      </g>
     </g>
     <g id="text_1">
      <text style="font-size: 10px; font-family: 'Microsoft YaHei'" transform="translate(86.520145 323.965207) rotate(-45)">2025-01</text>
     </g>
    </g>
    <g id="xtick_2">
     <g id="line2d_2">
      <g>
       <use xlink:href="#mcc00450b9b" x="159.397577" y="283.284966" style="stroke: #000000; stroke-width: 0.8"/>
      </g>
     </g>
     <g id="text_2">
      <text style="font-size: 10px; font-family: 'Microsoft YaHei'" transform="translate(129.66719 323.965207) rotate(-45)">2025-02</text>
     </g>
    </g>
    <g id="xtick_3">
     <g id="line2d_3">
      <g>
       <use xlink:href="#mcc00450b9b" x="202.544622" y="283.284966" style="stroke: #000000; stroke-width: 0.8"/>
      </g>
     </g>
     <g id="text_3">
      <text style="font-size: 10px; font-family: 'Microsoft YaHei'" transform="translate(172.814235 323.965207) rotate(-45)">2025-03</text>
     </g>
    </g>
    <g id="xtick_4">
     <g id="line2d_4">
      <g>
       <use xlink:href="#mcc00450b9b" x="245.691668" y="283.284966" style="stroke: #000000; stroke-width: 0.8"/>
      </g>
     </g>
     <g id="text_4">
      <text style="font-size: 10px; font-family: 'Microsoft YaHei'" transform="translate(215.96128 323.965207) rotate(-45)">2025-04</text>
     </g>
    </g>
    <g id="xtick_5">
     <g id="line2d_5">
      <g>
       <use xlink:href="#mcc00450b9b" x="288.838713" y="283.284966" style="stroke: #000000; stroke-width: 0.8"/>
      </g>
     </g>
     <g id="text_5">
      <text style="font-size: 10px; font-family: 'Microsoft YaHei'" transform="translate(259.108325 323.965207) rotate(-45)">2025-05</text>
     </g>
    </g>
    <g id="xtick_6">
     <g id="line2d_6">
      <g>
       <use xlink:href="#mcc00450b9b" x="331.985758" y="283.284966" style="stroke: #000000; stroke-width: 0.8"/>
      </g>
     </g>
     <g id="text_6">
      <text style="font-size: 10px; font-family: 'Microsoft YaHei'" transform="translate(302.25537 323.965207) rotate(-45)">2025-06</text>
     </g>
    </g>
    <g id="xtick_7">
     <g id="line2d_7">
      <g>
       <use xlink:href="#mcc00450b9b" x="375.132803" y="283.284966" style="stroke: #000000; stroke-width: 0.8"/>
      </g>
     </g>
     <g id="text_7">
      <text style="font-size: 10px; font-family: 'Microsoft YaHei'" transform="translate(345.402415 323.965207) rotate(-45)">2025-07</text>
     </g>
    </g>
    <g id="xtick_8">
     <g id="line2d_8">
      <g>
       <use xlink:href="#mcc00450b9b" x="418.279848" y="283.284966" style="stroke: #000000; stroke-width: 0.8"/>
      </g>
     </g>
     <g id="text_8">
      <text style="font-size: 10px; font-family: 'Microsoft YaHei'" transform="translate(388.549461 323.965207) rotate(-45)">2025-08</text>
     </g>
    </g>
    <g id="xtick_9">
     <g id="line2d_9">
      <g>
       <use xlink:href="#mcc00450b9b" x="461.426893" y="283.284966" style="stroke: #000000; stroke-width: 0.8"/>
      </g>
     </g>
     <g id="text_9">
      <text style="font-size: 10px; font-family: 'Microsoft YaHei'" transform="translate(431.696506 323.965207) rotate(-45)">2025-09</text>
     </g>
    </g>
    <g id="xtick_10">
     <g id="line2d_10">
      <g>
       <use xlink:href="#mcc00450b9b" x="504.573938" y="283.284966" style="stroke: #000000; stroke-width: 0.8"/>
      </g>
     </g>
     <g id="text_10">
      <text style="font-size: 10px; font-family: 'Microsoft YaHei'" transform="translate(474.843551 323.965207) rotate(-45)">2025-10</text>
     </g>
    </g>
    <g id="xtick_11">
     <g id="line2d_11">
      <g>
       <use xlink:href="#mcc00450b9b" x="547.720984" y="283.284966" style="stroke: #000000; stroke-width: 0.8"/>
      </g>
     </g>
     <g id="text_11">
      <text style="font-size: 10px; font-family: 'Microsoft YaHei'" transform="translate(517.990596 323.965207) rotate(-45)">2025-11</text>
     </g>
    </g>
    <g id="xtick_12">
     <g id="line2d_12">
      <g>
       <use xlink:href="#mcc00450b9b" x="590.868029" y="283.284966" style="stroke: #000000; stroke-width: 0.8"/>
      </g>
     </g>
     <g id="text_12">
      <text style="font-size: 10px; font-family: 'Microsoft YaHei'" transform="translate(561.137641 323.965207) rotate(-45)">2025-12</text>
     </g>
    </g>
    <g id="xtick_13">
     <g id="line2d_13">
      <g>
       <use xlink:href="#mcc00450b9b" x="634.015074" y="283.284966" style="stroke: #000000; stroke-width: 0.8"/>
      </g>
     </g>
     <g id="text_13">
      <text style="font-size: 10px; font-family: 'Microsoft YaHei'" transform="translate(604.284686 323.965207) rotate(-45)">2026-01</text>
     </g>
    </g>
    <g id="xtick_14">
     <g id="line2d_14">
      <g>
       <use xlink:href="#mcc00450b9b" x="677.162119" y="283.284966" style="stroke: #000000; stroke-width: 0.8"/>
      </g>
     </g>
     <g id="text_14">
      <text style="font-size: 10px; font-family: 'Microsoft YaHei'" transform="translate(647.431731 323.965207) rotate(-45)">2026-02</text>
     </g>
    </g>
    <g id="xtick_15">
     <g id="line2d_15">
      <g>
       <use xlink:href="#mcc00450b9b" x="720.309164" y="283.284966" style="stroke: #000000; stroke-width: 0.8"/>
      </g>
     </g>
     <g id="text_15">
      <text style="font-size: 10px; font-family: 'Microsoft YaHei'" transform="translate(690.578777 323.965207) rotate(-45)">2026-03</text>
     </g>
    </g>
    <g id="xtick_16">
     <g id="line2d_16">
      <g>
       <use xlink:href="#mcc00450b9b" x="763.456209" y="283.284966" style="stroke: #000000; stroke-width: 0.8"/>
      </g>
     </g>
     <g id="text_16">
      <text style="font-size: 10px; font-family: 'Microsoft YaHei'" transform="translate(733.725822 323.965207) rotate(-45)">2026-04</text>
     </g>
    </g>
    <g id="xtick_17">
     <g id="line2d_17">
      <g>
       <use xlink:href="#mcc00450b9b" x="806.603254" y="283.284966" style="stroke: #000000; stroke-width: 0.8"/>
      </g>
     </g>
     <g id="text_17">
      <text style="font-size: 10px; font-family: 'Microsoft YaHei'" transform="translate(776.872867 323.965207) rotate(-45)">2026-05</text>
     </g>
    </g>
    <g id="xtick_18">
     <g id="line2d_18">
      <g>
       <use xlink:href="#mcc00450b9b" x="849.750299" y="283.284966" style="stroke: #000000; stroke-width: 0.8"/>
      </g>
     </g>
     <g id="text_18">
      <text style="font-size: 10px; font-family: 'Microsoft YaHei'" transform="translate(820.019912 323.965207) rotate(-45)">2026-06</text>
     </g>
    </g>
    <g id="xtick_19">
     <g id="line2d_19">
      <g>
       <use xlink:href="#mcc00450b9b" x="892.897345" y="283.284966" style="stroke: #000000; stroke-width: 0.8"/>
      </g>
     </g>
     <g id="text_19">
      <text style="font-size: 10px; font-family: 'Microsoft YaHei'" transform="translate(863.166957 323.965207) rotate(-45)">2026-07</text>
     </g>
    </g>
    <g id="xtick_20">
     <g id="line2d_20">
      <g>
       <use xlink:href="#mcc00450b9b" x="936.04439" y="283.284966" style="stroke: #000000; stroke-width: 0.8"/>
      </g>
     </g>
     <g id="text_20">
      <text style="font-size: 10px; font-family: 'Microsoft YaHei'" transform="translate(906.314002 323.965207) rotate(-45)">2026-08</text>
     </g>
    </g>
   </g>
   <g id="matplotlib.axis_2">
    <g id="ytick_1">
     <g id="line2d_21">
      <path d="M 58.174609 268.248713 
L 994.120313 268.248713 
" clip-path="url(#p6aba0de1fd)" style="fill: none; stroke: #b0b0b0; stroke-opacity: 0.2; stroke-width: 0.8; stroke-linecap: square"/>
     </g>
     <g id="line2d_22">
      <defs>
       <path id="m6f4c935aed" d="M 0 0 
L -3.5 0 
" style="stroke: #000000; stroke-width: 0.8"/>
      </defs>
      <g>
       <use xlink:href="#m6f4c935aed" x="58.174609" y="268.248713" style="stroke: #000000; stroke-width: 0.8"/>
      </g>
     </g>
     <g id="text_21">
      <text style="font-size: 10px; font-family: 'Microsoft YaHei'; text-anchor: end" x="51.174609" y="272.308771" transform="rotate(-0 51.174609 272.308771)">0</text>
     </g>
    </g>
    <g id="ytick_2">
     <g id="line2d_23">
      <path d="M 58.174609 223.128423 
L 994.120313 223.128423 
" clip-path="url(#p6aba0de1fd)" style="fill: none; stroke: #b0b0b0; stroke-opacity: 0.2; stroke-width: 0.8; stroke-linecap: square"/>
     </g>
     <g id="line2d_24">
      <g>
       <use xlink:href="#m6f4c935aed" x="58.174609" y="223.128423" style="stroke: #000000; stroke-width: 0.8"/>
      </g>
     </g>
     <g id="text_22">
      <text style="font-size: 10px; font-family: 'Microsoft YaHei'; text-anchor: end" x="51.174609" y="227.188481" transform="rotate(-0 51.174609 227.188481)">2000</text>
     </g>
    </g>
    <g id="ytick_3">
     <g id="line2d_25">
      <path d="M 58.174609 178.008132 
L 994.120313 178.008132 
" clip-path="url(#p6aba0de1fd)" style="fill: none; stroke: #b0b0b0; stroke-opacity: 0.2; stroke-width: 0.8; stroke-linecap: square"/>
     </g>
     <g id="line2d_26">
      <g>
       <use xlink:href="#m6f4c935aed" x="58.174609" y="178.008132" style="stroke: #000000; stroke-width: 0.8"/>
      </g>
     </g>
     <g id="text_23">
      <text style="font-size: 10px; font-family: 'Microsoft YaHei'; text-anchor: end" x="51.174609" y="182.068191" transform="rotate(-0 51.174609 182.068191)">4000</text>
     </g>
    </g>
    <g id="ytick_4">
     <g id="line2d_27">
      <path d="M 58.174609 132.887842 
L 994.120313 132.887842 
" clip-path="url(#p6aba0de1fd)" style="fill: none; stroke: #b0b0b0; stroke-opacity: 0.2; stroke-width: 0.8; stroke-linecap: square"/>
     </g>
     <g id="line2d_28">
      <g>
       <use xlink:href="#m6f4c935aed" x="58.174609" y="132.887842" style="stroke: #000000; stroke-width: 0.8"/>
      </g>
     </g>
     <g id="text_24">
      <text style="font-size: 10px; font-family: 'Microsoft YaHei'; text-anchor: end" x="51.174609" y="136.947901" transform="rotate(-0 51.174609 136.947901)">6000</text>
     </g>
    </g>
    <g id="ytick_5">
     <g id="line2d_29">
      <path d="M 58.174609 87.767552 
L 994.120313 87.767552 
" clip-path="url(#p6aba0de1fd)" style="fill: none; stroke: #b0b0b0; stroke-opacity: 0.2; stroke-width: 0.8; stroke-linecap: square"/>
     </g>
     <g id="line2d_30">
      <g>
       <use xlink:href="#m6f4c935aed" x="58.174609" y="87.767552" style="stroke: #000000; stroke-width: 0.8"/>
      </g>
     </g>
     <g id="text_25">
      <text style="font-size: 10px; font-family: 'Microsoft YaHei'; text-anchor: end" x="51.174609" y="91.827611" transform="rotate(-0 51.174609 91.827611)">8000</text>
     </g>
    </g>
    <g id="ytick_6">
     <g id="line2d_31">
      <path d="M 58.174609 42.647262 
L 994.120313 42.647262 
" clip-path="url(#p6aba0de1fd)" style="fill: none; stroke: #b0b0b0; stroke-opacity: 0.2; stroke-width: 0.8; stroke-linecap: square"/>
     </g>
     <g id="line2d_32">
      <g>
       <use xlink:href="#m6f4c935aed" x="58.174609" y="42.647262" style="stroke: #000000; stroke-width: 0.8"/>
      </g>
     </g>
     <g id="text_26">
      <text style="font-size: 10px; font-family: 'Microsoft YaHei'; text-anchor: end" x="51.174609" y="46.70732" transform="rotate(-0 51.174609 46.70732)">10000</text>
     </g>
    </g>
    <g id="text_27">
     <text style="font-size: 10px; font-family: 'Microsoft YaHei'; text-anchor: middle" x="15.320117" y="158.266545" transform="rotate(-90 15.320117 158.266545)">kEUR</text>
    </g>
   </g>
   <g id="patch_3">
    <path d="M 100.717596 268.248713 
L 131.783468 268.248713 
L 131.783468 252.676293 
L 100.717596 252.676293 
z
" clip-path="url(#p6aba0de1fd)" style="fill: #4472c4"/>
   </g>
   <g id="patch_4">
    <path d="M 143.864641 268.248713 
L 174.930514 268.248713 
L 174.930514 271.919655 
L 143.864641 271.919655 
z
" clip-path="url(#p6aba0de1fd)" style="fill: #4472c4"/>
   </g>
   <g id="patch_5">
    <path d="M 187.011686 268.248713 
L 218.077559 268.248713 
L 218.077559 253.895398 
L 187.011686 253.895398 
z
" clip-path="url(#p6aba0de1fd)" style="fill: #4472c4"/>
   </g>
   <g id="patch_6">
    <path d="M 230.158731 268.248713 
L 261.224604 268.248713 
L 261.224604 252.295311 
L 230.158731 252.295311 
z
" clip-path="url(#p6aba0de1fd)" style="fill: #4472c4"/>
   </g>
   <g id="patch_7">
    <path d="M 273.305776 268.248713 
L 304.371649 268.248713 
L 304.371649 255.509597 
L 273.305776 255.509597 
z
" clip-path="url(#p6aba0de1fd)" style="fill: #4472c4"/>
   </g>
   <g id="patch_8">
    <path d="M 316.452822 268.248713 
L 347.518694 268.248713 
L 347.518694 250.408464 
L 316.452822 250.408464 
z
" clip-path="url(#p6aba0de1fd)" style="fill: #4472c4"/>
   </g>
   <g id="patch_9">
    <path d="M 359.599867 268.248713 
L 390.665739 268.248713 
L 390.665739 258.878554 
L 359.599867 258.878554 
z
" clip-path="url(#p6aba0de1fd)" style="fill: #4472c4"/>
   </g>
   <g id="patch_10">
    <path d="M 402.746912 268.248713 
L 433.812784 268.248713 
L 433.812784 257.403039 
L 402.746912 257.403039 
z
" clip-path="url(#p6aba0de1fd)" style="fill: #4472c4"/>
   </g>
   <g id="patch_11">
    <path d="M 445.893957 268.248713 
L 476.959829 268.248713 
L 476.959829 258.254434 
L 445.893957 258.254434 
z
" clip-path="url(#p6aba0de1fd)" style="fill: #4472c4"/>
   </g>
   <g id="patch_12">
    <path d="M 489.041002 268.248713 
L 520.106875 268.248713 
L 520.106875 263.70367 
L 489.041002 263.70367 
z
" clip-path="url(#p6aba0de1fd)" style="fill: #4472c4"/>
   </g>
   <g id="patch_13">
    <path d="M 532.188047 268.248713 
L 563.25392 268.248713 
L 563.25392 265.707536 
L 532.188047 265.707536 
z
" clip-path="url(#p6aba0de1fd)" style="fill: #4472c4"/>
   </g>
   <g id="patch_14">
    <path d="M 575.335092 268.248713 
L 606.400965 268.248713 
L 606.400965 267.664849 
L 575.335092 267.664849 
z
" clip-path="url(#p6aba0de1fd)" style="fill: #4472c4"/>
   </g>
   <g id="patch_15">
    <path d="M 618.482138 268.248713 
L 649.54801 268.248713 
L 649.54801 270.686368 
L 618.482138 270.686368 
z
" clip-path="url(#p6aba0de1fd)" style="fill: #4472c4"/>
   </g>
   <g id="patch_16">
    <path d="M 661.629183 268.248713 
L 692.695055 268.248713 
L 692.695055 265.806493 
L 661.629183 265.806493 
z
" clip-path="url(#p6aba0de1fd)" style="fill: #4472c4"/>
   </g>
   <g id="patch_17">
    <path d="M 704.776228 268.248713 
L 735.8421 268.248713 
L 735.8421 257.472669 
L 704.776228 257.472669 
z
" clip-path="url(#p6aba0de1fd)" style="fill: #4472c4"/>
   </g>
   <g id="patch_18">
    <path d="M 747.923273 268.248713 
L 778.989145 268.248713 
L 778.989145 249.128951 
L 747.923273 249.128951 
z
" clip-path="url(#p6aba0de1fd)" style="fill: #4472c4"/>
   </g>
   <g id="patch_19">
    <path d="M 791.070318 268.248713 
L 822.136191 268.248713 
L 822.136191 257.460097 
L 791.070318 257.460097 
z
" clip-path="url(#p6aba0de1fd)" style="fill: #4472c4"/>
   </g>
   <g id="patch_20">
    <path d="M 834.217363 268.248713 
L 865.283236 268.248713 
L 865.283236 254.469335 
L 834.217363 254.469335 
z
" clip-path="url(#p6aba0de1fd)" style="fill: #4472c4"/>
   </g>
   <g id="patch_21">
    <path d="M 877.364408 268.248713 
L 908.430281 268.248713 
L 908.430281 252.520187 
L 877.364408 252.520187 
z
" clip-path="url(#p6aba0de1fd)" style="fill: #4472c4"/>
   </g>
   <g id="patch_22">
    <path d="M 920.511453 268.248713 
L 951.577326 268.248713 
L 951.577326 266.805765 
L 920.511453 266.805765 
z
" clip-path="url(#p6aba0de1fd)" style="fill: #4472c4"/>
   </g>
   <g id="patch_23">
    <path d="M 100.717596 252.676293 
L 131.783468 252.676293 
L 131.783468 252.676293 
L 100.717596 252.676293 
z
" clip-path="url(#p6aba0de1fd)" style="fill: #ed7d31"/>
   </g>
   <g id="patch_24">
    <path d="M 143.864641 268.248713 
L 174.930514 268.248713 
L 174.930514 268.248713 
L 143.864641 268.248713 
z
" clip-path="url(#p6aba0de1fd)" style="fill: #ed7d31"/>
   </g>
   <g id="patch_25">
    <path d="M 187.011686 253.895398 
L 218.077559 253.895398 
L 218.077559 253.895398 
L 187.011686 253.895398 
z
" clip-path="url(#p6aba0de1fd)" style="fill: #ed7d31"/>
   </g>
   <g id="patch_26">
    <path d="M 230.158731 252.295311 
L 261.224604 252.295311 
L 261.224604 252.295311 
L 230.158731 252.295311 
z
" clip-path="url(#p6aba0de1fd)" style="fill: #ed7d31"/>
   </g>
   <g id="patch_27">
    <path d="M 273.305776 255.509597 
L 304.371649 255.509597 
L 304.371649 255.509597 
L 273.305776 255.509597 
z
" clip-path="url(#p6aba0de1fd)" style="fill: #ed7d31"/>
   </g>
   <g id="patch_28">
    <path d="M 316.452822 250.408464 
L 347.518694 250.408464 
L 347.518694 217.337135 
L 316.452822 217.337135 
z
" clip-path="url(#p6aba0de1fd)" style="fill: #ed7d31"/>
   </g>
   <g id="patch_29">
    <path d="M 359.599867 258.878554 
L 390.665739 258.878554 
L 390.665739 184.922261 
L 359.599867 184.922261 
z
" clip-path="url(#p6aba0de1fd)" style="fill: #ed7d31"/>
   </g>
   <g id="patch_30">
    <path d="M 402.746912 257.403039 
L 433.812784 257.403039 
L 433.812784 182.869485 
L 402.746912 182.869485 
z
" clip-path="url(#p6aba0de1fd)" style="fill: #ed7d31"/>
   </g>
   <g id="patch_31">
    <path d="M 445.893957 258.254434 
L 476.959829 258.254434 
L 476.959829 178.276977 
L 445.893957 178.276977 
z
" clip-path="url(#p6aba0de1fd)" style="fill: #ed7d31"/>
   </g>
   <g id="patch_32">
    <path d="M 489.041002 263.70367 
L 520.106875 263.70367 
L 520.106875 169.968804 
L 489.041002 169.968804 
z
" clip-path="url(#p6aba0de1fd)" style="fill: #ed7d31"/>
   </g>
   <g id="patch_33">
    <path d="M 532.188047 265.707536 
L 563.25392 265.707536 
L 563.25392 180.647851 
L 532.188047 180.647851 
z
" clip-path="url(#p6aba0de1fd)" style="fill: #ed7d31"/>
   </g>
   <g id="patch_34">
    <path d="M 575.335092 267.664849 
L 606.400965 267.664849 
L 606.400965 175.16452 
L 575.335092 175.16452 
z
" clip-path="url(#p6aba0de1fd)" style="fill: #ed7d31"/>
   </g>
   <g id="patch_35">
    <path d="M 618.482138 268.248713 
L 649.54801 268.248713 
L 649.54801 177.051672 
L 618.482138 177.051672 
z
" clip-path="url(#p6aba0de1fd)" style="fill: #ed7d31"/>
   </g>
   <g id="patch_36">
    <path d="M 661.629183 265.806493 
L 692.695055 265.806493 
L 692.695055 183.636402 
L 661.629183 183.636402 
z
" clip-path="url(#p6aba0de1fd)" style="fill: #ed7d31"/>
   </g>
   <g id="patch_37">
    <path d="M 704.776228 257.472669 
L 735.8421 257.472669 
L 735.8421 168.934644 
L 704.776228 168.934644 
z
" clip-path="url(#p6aba0de1fd)" style="fill: #ed7d31"/>
   </g>
   <g id="patch_38">
    <path d="M 747.923273 249.128951 
L 778.989145 249.128951 
L 778.989145 192.595474 
L 747.923273 192.595474 
z
" clip-path="url(#p6aba0de1fd)" style="fill: #ed7d31"/>
   </g>
   <g id="patch_39">
    <path d="M 791.070318 257.460097 
L 822.136191 257.460097 
L 822.136191 184.185283 
L 791.070318 184.185283 
z
" clip-path="url(#p6aba0de1fd)" style="fill: #ed7d31"/>
   </g>
   <g id="patch_40">
    <path d="M 834.217363 254.469335 
L 865.283236 254.469335 
L 865.283236 181.426562 
L 834.217363 181.426562 
z
" clip-path="url(#p6aba0de1fd)" style="fill: #ed7d31"/>
   </g>
   <g id="patch_41">
    <path d="M 877.364408 252.520187 
L 908.430281 252.520187 
L 908.430281 175.491906 
L 877.364408 175.491906 
z
" clip-path="url(#p6aba0de1fd)" style="fill: #ed7d31"/>
   </g>
   <g id="patch_42">
    <path d="M 920.511453 266.805765 
L 951.577326 266.805765 
L 951.577326 177.62789 
L 920.511453 177.62789 
z
" clip-path="url(#p6aba0de1fd)" style="fill: #ed7d31"/>
   </g>
   <g id="patch_43">
    <path d="M 100.717596 252.676293 
L 131.783468 252.676293 
L 131.783468 234.434254 
L 100.717596 234.434254 
z
" clip-path="url(#p6aba0de1fd)" style="fill: #70ad47"/>
   </g>
   <g id="patch_44">
    <path d="M 143.864641 268.248713 
L 174.930514 268.248713 
L 174.930514 251.91194 
L 143.864641 251.91194 
z
" clip-path="url(#p6aba0de1fd)" style="fill: #70ad47"/>
   </g>
   <g id="patch_45">
    <path d="M 187.011686 253.895398 
L 218.077559 253.895398 
L 218.077559 237.19474 
L 187.011686 237.19474 
z
" clip-path="url(#p6aba0de1fd)" style="fill: #70ad47"/>
   </g>
   <g id="patch_46">
    <path d="M 230.158731 252.295311 
L 261.224604 252.295311 
L 261.224604 236.033318 
L 230.158731 236.033318 
z
" clip-path="url(#p6aba0de1fd)" style="fill: #70ad47"/>
   </g>
   <g id="patch_47">
    <path d="M 273.305776 255.509597 
L 304.371649 255.509597 
L 304.371649 239.041581 
L 273.305776 239.041581 
z
" clip-path="url(#p6aba0de1fd)" style="fill: #70ad47"/>
   </g>
   <g id="patch_48">
    <path d="M 316.452822 217.337135 
L 347.518694 217.337135 
L 347.518694 207.925547 
L 316.452822 207.925547 
z
" clip-path="url(#p6aba0de1fd)" style="fill: #70ad47"/>
   </g>
   <g id="patch_49">
    <path d="M 359.599867 184.922261 
L 390.665739 184.922261 
L 390.665739 181.543509 
L 359.599867 181.543509 
z
" clip-path="url(#p6aba0de1fd)" style="fill: #70ad47"/>
   </g>
   <g id="patch_50">
    <path d="M 402.746912 182.869485 
L 433.812784 182.869485 
L 433.812784 180.543439 
L 402.746912 180.543439 
z
" clip-path="url(#p6aba0de1fd)" style="fill: #70ad47"/>
   </g>
   <g id="patch_51">
    <path d="M 445.893957 178.276977 
L 476.959829 178.276977 
L 476.959829 175.627161 
L 445.893957 175.627161 
z
" clip-path="url(#p6aba0de1fd)" style="fill: #70ad47"/>
   </g>
   <g id="patch_52">
    <path d="M 489.041002 169.968804 
L 520.106875 169.968804 
L 520.106875 167.959709 
L 489.041002 167.959709 
z
" clip-path="url(#p6aba0de1fd)" style="fill: #70ad47"/>
   </g>
   <g id="patch_53">
    <path d="M 532.188047 180.647851 
L 563.25392 180.647851 
L 563.25392 178.654066 
L 532.188047 178.654066 
z
" clip-path="url(#p6aba0de1fd)" style="fill: #70ad47"/>
   </g>
   <g id="patch_54">
    <path d="M 575.335092 175.16452 
L 606.400965 175.16452 
L 606.400965 173.584358 
L 575.335092 173.584358 
z
" clip-path="url(#p6aba0de1fd)" style="fill: #70ad47"/>
   </g>
   <g id="patch_55">
    <path d="M 618.482138 177.051672 
L 649.54801 177.051672 
L 649.54801 175.40321 
L 618.482138 175.40321 
z
" clip-path="url(#p6aba0de1fd)" style="fill: #70ad47"/>
   </g>
   <g id="patch_56">
    <path d="M 661.629183 183.636402 
L 692.695055 183.636402 
L 692.695055 181.988731 
L 661.629183 181.988731 
z
" clip-path="url(#p6aba0de1fd)" style="fill: #70ad47"/>
   </g>
   <g id="patch_57">
    <path d="M 704.776228 168.934644 
L 735.8421 168.934644 
L 735.8421 167.465353 
L 704.776228 167.465353 
z
" clip-path="url(#p6aba0de1fd)" style="fill: #70ad47"/>
   </g>
   <g id="patch_58">
    <path d="M 747.923273 192.595474 
L 778.989145 192.595474 
L 778.989145 189.235828 
L 747.923273 189.235828 
z
" clip-path="url(#p6aba0de1fd)" style="fill: #70ad47"/>
   </g>
   <g id="patch_59">
    <path d="M 791.070318 184.185283 
L 822.136191 184.185283 
L 822.136191 181.175772 
L 791.070318 181.175772 
z
" clip-path="url(#p6aba0de1fd)" style="fill: #70ad47"/>
   </g>
   <g id="patch_60">
    <path d="M 834.217363 181.426562 
L 865.283236 181.426562 
L 865.283236 178.836529 
L 834.217363 178.836529 
z
" clip-path="url(#p6aba0de1fd)" style="fill: #70ad47"/>
   </g>
   <g id="patch_61">
    <path d="M 877.364408 175.491906 
L 908.430281 175.491906 
L 908.430281 173.408056 
L 877.364408 173.408056 
z
" clip-path="url(#p6aba0de1fd)" style="fill: #70ad47"/>
   </g>
   <g id="patch_62">
    <path d="M 920.511453 177.62789 
L 951.577326 177.62789 
L 951.577326 176.064917 
L 920.511453 176.064917 
z
" clip-path="url(#p6aba0de1fd)" style="fill: #70ad47"/>
   </g>
   <g id="patch_63">
    <path d="M 100.717596 234.434254 
L 131.783468 234.434254 
L 131.783468 215.380779 
L 100.717596 215.380779 
z
" clip-path="url(#p6aba0de1fd)" style="fill: #a5a5a5"/>
   </g>
   <g id="patch_64">
    <path d="M 143.864641 251.91194 
L 174.930514 251.91194 
L 174.930514 236.621163 
L 143.864641 236.621163 
z
" clip-path="url(#p6aba0de1fd)" style="fill: #a5a5a5"/>
   </g>
   <g id="patch_65">
    <path d="M 187.011686 237.19474 
L 218.077559 237.19474 
L 218.077559 218.897341 
L 187.011686 218.897341 
z
" clip-path="url(#p6aba0de1fd)" style="fill: #a5a5a5"/>
   </g>
   <g id="patch_66">
    <path d="M 230.158731 236.033318 
L 261.224604 236.033318 
L 261.224604 216.724029 
L 230.158731 216.724029 
z
" clip-path="url(#p6aba0de1fd)" style="fill: #a5a5a5"/>
   </g>
   <g id="patch_67">
    <path d="M 273.305776 239.041581 
L 304.371649 239.041581 
L 304.371649 221.996766 
L 273.305776 221.996766 
z
" clip-path="url(#p6aba0de1fd)" style="fill: #a5a5a5"/>
   </g>
   <g id="patch_68">
    <path d="M 316.452822 207.925547 
L 347.518694 207.925547 
L 347.518694 199.348541 
L 316.452822 199.348541 
z
" clip-path="url(#p6aba0de1fd)" style="fill: #a5a5a5"/>
   </g>
   <g id="patch_69">
    <path d="M 359.599867 181.543509 
L 390.665739 181.543509 
L 390.665739 179.261129 
L 359.599867 179.261129 
z
" clip-path="url(#p6aba0de1fd)" style="fill: #a5a5a5"/>
   </g>
   <g id="patch_70">
    <path d="M 402.746912 180.543439 
L 433.812784 180.543439 
L 433.812784 175.435509 
L 402.746912 175.435509 
z
" clip-path="url(#p6aba0de1fd)" style="fill: #a5a5a5"/>
   </g>
   <g id="patch_71">
    <path d="M 445.893957 175.627161 
L 476.959829 175.627161 
L 476.959829 169.804666 
L 445.893957 169.804666 
z
" clip-path="url(#p6aba0de1fd)" style="fill: #a5a5a5"/>
   </g>
   <g id="patch_72">
    <path d="M 489.041002 167.959709 
L 520.106875 167.959709 
L 520.106875 167.364117 
L 489.041002 167.364117 
z
" clip-path="url(#p6aba0de1fd)" style="fill: #a5a5a5"/>
   </g>
   <g id="patch_73">
    <path d="M 532.188047 178.654066 
L 563.25392 178.654066 
L 563.25392 178.331379 
L 532.188047 178.331379 
z
" clip-path="url(#p6aba0de1fd)" style="fill: #a5a5a5"/>
   </g>
   <g id="patch_74">
    <path d="M 575.335092 173.584358 
L 606.400965 173.584358 
L 606.400965 173.192478 
L 575.335092 173.192478 
z
" clip-path="url(#p6aba0de1fd)" style="fill: #a5a5a5"/>
   </g>
   <g id="patch_75">
    <path d="M 618.482138 175.40321 
L 649.54801 175.40321 
L 649.54801 175.211989 
L 618.482138 175.211989 
z
" clip-path="url(#p6aba0de1fd)" style="fill: #a5a5a5"/>
   </g>
   <g id="patch_76">
    <path d="M 661.629183 181.988731 
L 692.695055 181.988731 
L 692.695055 181.340766 
L 661.629183 181.340766 
z
" clip-path="url(#p6aba0de1fd)" style="fill: #a5a5a5"/>
   </g>
   <g id="patch_77">
    <path d="M 704.776228 167.465353 
L 735.8421 167.465353 
L 735.8421 166.42897 
L 704.776228 166.42897 
z
" clip-path="url(#p6aba0de1fd)" style="fill: #a5a5a5"/>
   </g>
   <g id="patch_78">
    <path d="M 747.923273 189.235828 
L 778.989145 189.235828 
L 778.989145 185.278903 
L 747.923273 185.278903 
z
" clip-path="url(#p6aba0de1fd)" style="fill: #a5a5a5"/>
   </g>
   <g id="patch_79">
    <path d="M 791.070318 181.175772 
L 822.136191 181.175772 
L 822.136191 178.927924 
L 791.070318 178.927924 
z
" clip-path="url(#p6aba0de1fd)" style="fill: #a5a5a5"/>
   </g>
   <g id="patch_80">
    <path d="M 834.217363 178.836529 
L 865.283236 178.836529 
L 865.283236 177.812661 
L 834.217363 177.812661 
z
" clip-path="url(#p6aba0de1fd)" style="fill: #a5a5a5"/>
   </g>
   <g id="patch_81">
    <path d="M 877.364408 173.408056 
L 908.430281 173.408056 
L 908.430281 171.852847 
L 877.364408 171.852847 
z
" clip-path="url(#p6aba0de1fd)" style="fill: #a5a5a5"/>
   </g>
   <g id="patch_82">
    <path d="M 920.511453 176.064917 
L 951.577326 176.064917 
L 951.577326 175.771739 
L 920.511453 175.771739 
z
" clip-path="url(#p6aba0de1fd)" style="fill: #a5a5a5"/>
   </g>
   <g id="patch_83">
    <path d="M 100.717596 215.380779 
L 131.783468 215.380779 
L 131.783468 165.46634 
L 100.717596 165.46634 
z
" clip-path="url(#p6aba0de1fd)" style="fill: #ffc000"/>
   </g>
   <g id="patch_84">
    <path d="M 143.864641 236.621163 
L 174.930514 236.621163 
L 174.930514 132.751831 
L 143.864641 132.751831 
z
" clip-path="url(#p6aba0de1fd)" style="fill: #ffc000"/>
   </g>
   <g id="patch_85">
    <path d="M 187.011686 218.897341 
L 218.077559 218.897341 
L 218.077559 142.5369 
L 187.011686 142.5369 
z
" clip-path="url(#p6aba0de1fd)" style="fill: #ffc000"/>
   </g>
   <g id="patch_86">
    <path d="M 230.158731 216.724029 
L 261.224604 216.724029 
L 261.224604 134.327044 
L 230.158731 134.327044 
z
" clip-path="url(#p6aba0de1fd)" style="fill: #ffc000"/>
   </g>
   <g id="patch_87">
    <path d="M 273.305776 221.996766 
L 304.371649 221.996766 
L 304.371649 124.3494 
L 273.305776 124.3494 
z
" clip-path="url(#p6aba0de1fd)" style="fill: #ffc000"/>
   </g>
   <g id="patch_88">
    <path d="M 316.452822 199.348541 
L 347.518694 199.348541 
L 347.518694 151.533854 
L 316.452822 151.533854 
z
" clip-path="url(#p6aba0de1fd)" style="fill: #ffc000"/>
   </g>
   <g id="patch_89">
    <path d="M 359.599867 179.261129 
L 390.665739 179.261129 
L 390.665739 129.735653 
L 359.599867 129.735653 
z
" clip-path="url(#p6aba0de1fd)" style="fill: #ffc000"/>
   </g>
   <g id="patch_90">
    <path d="M 402.746912 175.435509 
L 433.812784 175.435509 
L 433.812784 139.715104 
L 402.746912 139.715104 
z
" clip-path="url(#p6aba0de1fd)" style="fill: #ffc000"/>
   </g>
   <g id="patch_91">
    <path d="M 445.893957 169.804666 
L 476.959829 169.804666 
L 476.959829 131.888133 
L 445.893957 131.888133 
z
" clip-path="url(#p6aba0de1fd)" style="fill: #ffc000"/>
   </g>
   <g id="patch_92">
    <path d="M 489.041002 167.364117 
L 520.106875 167.364117 
L 520.106875 119.538022 
L 489.041002 119.538022 
z
" clip-path="url(#p6aba0de1fd)" style="fill: #ffc000"/>
   </g>
   <g id="patch_93">
    <path d="M 532.188047 178.331379 
L 563.25392 178.331379 
L 563.25392 129.771548 
L 532.188047 129.771548 
z
" clip-path="url(#p6aba0de1fd)" style="fill: #ffc000"/>
   </g>
   <g id="patch_94">
    <path d="M 575.335092 173.192478 
L 606.400965 173.192478 
L 606.400965 134.208919 
L 575.335092 134.208919 
z
" clip-path="url(#p6aba0de1fd)" style="fill: #ffc000"/>
   </g>
   <g id="patch_95">
    <path d="M 618.482138 175.211989 
L 649.54801 175.211989 
L 649.54801 119.526102 
L 618.482138 119.526102 
z
" clip-path="url(#p6aba0de1fd)" style="fill: #ffc000"/>
   </g>
   <g id="patch_96">
    <path d="M 661.629183 181.340766 
L 692.695055 181.340766 
L 692.695055 158.102546 
L 661.629183 158.102546 
z
" clip-path="url(#p6aba0de1fd)" style="fill: #ffc000"/>
   </g>
   <g id="patch_97">
    <path d="M 704.776228 166.42897 
L 735.8421 166.42897 
L 735.8421 140.686899 
L 704.776228 140.686899 
z
" clip-path="url(#p6aba0de1fd)" style="fill: #ffc000"/>
   </g>
   <g id="patch_98">
    <path d="M 747.923273 185.278903 
L 778.989145 185.278903 
L 778.989145 160.470689 
L 747.923273 160.470689 
z
" clip-path="url(#p6aba0de1fd)" style="fill: #ffc000"/>
   </g>
   <g id="patch_99">
    <path d="M 791.070318 178.927924 
L 822.136191 178.927924 
L 822.136191 141.165626 
L 791.070318 141.165626 
z
" clip-path="url(#p6aba0de1fd)" style="fill: #ffc000"/>
   </g>
   <g id="patch_100">
    <path d="M 834.217363 177.812661 
L 865.283236 177.812661 
L 865.283236 138.801386 
L 834.217363 138.801386 
z
" clip-path="url(#p6aba0de1fd)" style="fill: #ffc000"/>
   </g>
   <g id="patch_101">
    <path d="M 877.364408 171.852847 
L 908.430281 171.852847 
L 908.430281 154.450266 
L 877.364408 154.450266 
z
" clip-path="url(#p6aba0de1fd)" style="fill: #ffc000"/>
   </g>
   <g id="patch_102">
    <path d="M 920.511453 175.771739 
L 951.577326 175.771739 
L 951.577326 146.155291 
L 920.511453 146.155291 
z
" clip-path="url(#p6aba0de1fd)" style="fill: #ffc000"/>
   </g>
   <g id="patch_103">
    <path d="M 100.717596 165.46634 
L 131.783468 165.46634 
L 131.783468 134.689779 
L 100.717596 134.689779 
z
" clip-path="url(#p6aba0de1fd)" style="fill: #8064a2"/>
   </g>
   <g id="patch_104">
    <path d="M 143.864641 132.751831 
L 174.930514 132.751831 
L 174.930514 109.312863 
L 143.864641 109.312863 
z
" clip-path="url(#p6aba0de1fd)" style="fill: #8064a2"/>
   </g>
   <g id="patch_105">
    <path d="M 187.011686 142.5369 
L 218.077559 142.5369 
L 218.077559 78.581492 
L 187.011686 78.581492 
z
" clip-path="url(#p6aba0de1fd)" style="fill: #8064a2"/>
   </g>
   <g id="patch_106">
    <path d="M 230.158731 134.327044 
L 261.224604 134.327044 
L 261.224604 44.613436 
L 230.158731 44.613436 
z
" clip-path="url(#p6aba0de1fd)" style="fill: #8064a2"/>
   </g>
   <g id="patch_107">
    <path d="M 273.305776 124.3494 
L 304.371649 124.3494 
L 304.371649 81.45406 
L 273.305776 81.45406 
z
" clip-path="url(#p6aba0de1fd)" style="fill: #8064a2"/>
   </g>
   <g id="patch_108">
    <path d="M 316.452822 151.533854 
L 347.518694 151.533854 
L 347.518694 106.799636 
L 316.452822 106.799636 
z
" clip-path="url(#p6aba0de1fd)" style="fill: #8064a2"/>
   </g>
   <g id="patch_109">
    <path d="M 359.599867 129.735653 
L 390.665739 129.735653 
L 390.665739 99.816266 
L 359.599867 99.816266 
z
" clip-path="url(#p6aba0de1fd)" style="fill: #8064a2"/>
   </g>
   <g id="patch_110">
    <path d="M 402.746912 139.715104 
L 433.812784 139.715104 
L 433.812784 99.577336 
L 402.746912 99.577336 
z
" clip-path="url(#p6aba0de1fd)" style="fill: #8064a2"/>
   </g>
   <g id="patch_111">
    <path d="M 445.893957 131.888133 
L 476.959829 131.888133 
L 476.959829 113.870409 
L 445.893957 113.870409 
z
" clip-path="url(#p6aba0de1fd)" style="fill: #8064a2"/>
   </g>
   <g id="patch_112">
    <path d="M 489.041002 119.538022 
L 520.106875 119.538022 
L 520.106875 114.541028 
L 489.041002 114.541028 
z
" clip-path="url(#p6aba0de1fd)" style="fill: #8064a2"/>
   </g>
   <g id="patch_113">
    <path d="M 532.188047 129.771548 
L 563.25392 129.771548 
L 563.25392 121.040811 
L 532.188047 121.040811 
z
" clip-path="url(#p6aba0de1fd)" style="fill: #8064a2"/>
   </g>
   <g id="patch_114">
    <path d="M 575.335092 134.208919 
L 606.400965 134.208919 
L 606.400965 123.808983 
L 575.335092 123.808983 
z
" clip-path="url(#p6aba0de1fd)" style="fill: #8064a2"/>
   </g>
   <g id="patch_115">
    <path d="M 618.482138 119.526102 
L 649.54801 119.526102 
L 649.54801 114.990892 
L 618.482138 114.990892 
z
" clip-path="url(#p6aba0de1fd)" style="fill: #8064a2"/>
   </g>
   <g id="patch_116">
    <path d="M 661.629183 158.102546 
L 692.695055 158.102546 
L 692.695055 146.278172 
L 661.629183 146.278172 
z
" clip-path="url(#p6aba0de1fd)" style="fill: #8064a2"/>
   </g>
   <g id="patch_117">
    <path d="M 704.776228 140.686899 
L 735.8421 140.686899 
L 735.8421 125.963932 
L 704.776228 125.963932 
z
" clip-path="url(#p6aba0de1fd)" style="fill: #8064a2"/>
   </g>
   <g id="patch_118">
    <path d="M 747.923273 160.470689 
L 778.989145 160.470689 
L 778.989145 125.195128 
L 747.923273 125.195128 
z
" clip-path="url(#p6aba0de1fd)" style="fill: #8064a2"/>
   </g>
   <g id="patch_119">
    <path d="M 791.070318 141.165626 
L 822.136191 141.165626 
L 822.136191 126.582297 
L 791.070318 126.582297 
z
" clip-path="url(#p6aba0de1fd)" style="fill: #8064a2"/>
   </g>
   <g id="patch_120">
    <path d="M 834.217363 138.801386 
L 865.283236 138.801386 
L 865.283236 130.373302 
L 834.217363 130.373302 
z
" clip-path="url(#p6aba0de1fd)" style="fill: #8064a2"/>
   </g>
   <g id="patch_121">
    <path d="M 877.364408 154.450266 
L 908.430281 154.450266 
L 908.430281 138.44593 
L 877.364408 138.44593 
z
" clip-path="url(#p6aba0de1fd)" style="fill: #8064a2"/>
   </g>
   <g id="patch_122">
    <path d="M 920.511453 146.155291 
L 951.577326 146.155291 
L 951.577326 142.940145 
L 920.511453 142.940145 
z
" clip-path="url(#p6aba0de1fd)" style="fill: #8064a2"/>
   </g>
   <g id="line2d_33">
    <path d="M 116.250532 134.689779 
L 159.397577 112.983805 
L 202.544622 78.581492 
L 245.691668 44.613436 
L 288.838713 81.45406 
L 331.985758 106.799636 
L 375.132803 99.816266 
L 418.279848 99.577336 
L 461.426893 113.870409 
L 504.573938 114.541028 
L 547.720984 121.040811 
L 590.868029 123.808983 
L 634.015074 117.428548 
L 677.162119 146.278172 
L 720.309164 125.963932 
L 763.456209 125.195128 
L 806.603254 126.582297 
L 849.750299 130.373302 
L 892.897345 138.44593 
L 936.04439 142.940145 
" clip-path="url(#p6aba0de1fd)" style="fill: none; stroke: #202936; stroke-width: 1.4; stroke-linecap: square"/>
    <defs>
     <path id="m90fba1b664" d="M 0 1.5 
C 0.397805 1.5 0.77937 1.341951 1.06066 1.06066 
C 1.341951 0.77937 1.5 0.397805 1.5 0 
C 1.5 -0.397805 1.341951 -0.77937 1.06066 -1.06066 
C 0.77937 -1.341951 0.397805 -1.5 0 -1.5 
C -0.397805 -1.5 -0.77937 -1.341951 -1.06066 -1.06066 
C -1.341951 -0.77937 -1.5 -0.397805 -1.5 0 
C -1.5 0.397805 -1.341951 0.77937 -1.06066 1.06066 
C -0.77937 1.341951 -0.397805 1.5 0 1.5 
z
" style="stroke: #202936"/>
    </defs>
    <g clip-path="url(#p6aba0de1fd)">
     <use xlink:href="#m90fba1b664" x="116.250532" y="134.689779" style="fill: #202936; stroke: #202936"/>
     <use xlink:href="#m90fba1b664" x="159.397577" y="112.983805" style="fill: #202936; stroke: #202936"/>
     <use xlink:href="#m90fba1b664" x="202.544622" y="78.581492" style="fill: #202936; stroke: #202936"/>
     <use xlink:href="#m90fba1b664" x="245.691668" y="44.613436" style="fill: #202936; stroke: #202936"/>
     <use xlink:href="#m90fba1b664" x="288.838713" y="81.45406" style="fill: #202936; stroke: #202936"/>
     <use xlink:href="#m90fba1b664" x="331.985758" y="106.799636" style="fill: #202936; stroke: #202936"/>
     <use xlink:href="#m90fba1b664" x="375.132803" y="99.816266" style="fill: #202936; stroke: #202936"/>
     <use xlink:href="#m90fba1b664" x="418.279848" y="99.577336" style="fill: #202936; stroke: #202936"/>
     <use xlink:href="#m90fba1b664" x="461.426893" y="113.870409" style="fill: #202936; stroke: #202936"/>
     <use xlink:href="#m90fba1b664" x="504.573938" y="114.541028" style="fill: #202936; stroke: #202936"/>
     <use xlink:href="#m90fba1b664" x="547.720984" y="121.040811" style="fill: #202936; stroke: #202936"/>
     <use xlink:href="#m90fba1b664" x="590.868029" y="123.808983" style="fill: #202936; stroke: #202936"/>
     <use xlink:href="#m90fba1b664" x="634.015074" y="117.428548" style="fill: #202936; stroke: #202936"/>
     <use xlink:href="#m90fba1b664" x="677.162119" y="146.278172" style="fill: #202936; stroke: #202936"/>
     <use xlink:href="#m90fba1b664" x="720.309164" y="125.963932" style="fill: #202936; stroke: #202936"/>
     <use xlink:href="#m90fba1b664" x="763.456209" y="125.195128" style="fill: #202936; stroke: #202936"/>
     <use xlink:href="#m90fba1b664" x="806.603254" y="126.582297" style="fill: #202936; stroke: #202936"/>
     <use xlink:href="#m90fba1b664" x="849.750299" y="130.373302" style="fill: #202936; stroke: #202936"/>
     <use xlink:href="#m90fba1b664" x="892.897345" y="138.44593" style="fill: #202936; stroke: #202936"/>
     <use xlink:href="#m90fba1b664" x="936.04439" y="142.940145" style="fill: #202936; stroke: #202936"/>
    </g>
   </g>
   <g id="line2d_34">
    <path d="M 58.174609 268.248713 
L 994.120313 268.248713 
" clip-path="url(#p6aba0de1fd)" style="fill: none; stroke: #556070; stroke-width: 0.7; stroke-linecap: square"/>
   </g>
   <g id="patch_123">
    <path d="M 58.174609 283.284966 
L 58.174609 33.248125 
" style="fill: none; stroke: #000000; stroke-width: 0.8; stroke-linejoin: miter; stroke-linecap: square"/>
   </g>
   <g id="patch_124">
    <path d="M 994.120313 283.284966 
L 994.120313 33.248125 
" style="fill: none; stroke: #000000; stroke-width: 0.8; stroke-linejoin: miter; stroke-linecap: square"/>
   </g>
   <g id="patch_125">
    <path d="M 58.174609 283.284966 
L 994.120313 283.284966 
" style="fill: none; stroke: #000000; stroke-width: 0.8; stroke-linejoin: miter; stroke-linecap: square"/>
   </g>
   <g id="patch_126">
    <path d="M 58.174609 33.248125 
L 994.120313 33.248125 
" style="fill: none; stroke: #000000; stroke-width: 0.8; stroke-linejoin: miter; stroke-linecap: square"/>
   </g>
   <g id="text_28">
    <text style="font-weight: 700; font-size: 12px; font-family: 'Microsoft YaHei'; text-anchor: start" x="58.174609" y="17.248125" transform="rotate(-0 58.174609 17.248125)">罗马尼亚 100MW/200MWh · 月度条件毛现金</text>
   </g>
   <g id="legend_1">
    <g id="line2d_35">
     <path d="M 327.063086 344.665403 
L 337.063086 344.665403 
L 347.063086 344.665403 
" style="fill: none; stroke: #202936; stroke-width: 1.4; stroke-linecap: square"/>
     <g>
      <use xlink:href="#m90fba1b664" x="337.063086" y="344.665403" style="fill: #202936; stroke: #202936"/>
     </g>
    </g>
    <g id="text_29">
     <text style="font-size: 10px; font-family: 'Microsoft YaHei'; text-anchor: start" x="355.063086" y="348.165403" transform="rotate(-0 355.063086 348.165403)">合计</text>
    </g>
    <g id="patch_127">
     <path d="M 327.063086 364.132395 
L 347.063086 364.132395 
L 347.063086 357.132395 
L 327.063086 357.132395 
z
" style="fill: #4472c4"/>
    </g>
    <g id="text_30">
     <text style="font-size: 10px; font-family: 'Microsoft YaHei'; text-anchor: start" x="355.063086" y="364.132395" transform="rotate(-0 355.063086 364.132395)">DA电能</text>
    </g>
    <g id="patch_128">
     <path d="M 409.541211 348.165403 
L 429.541211 348.165403 
L 429.541211 341.165403 
L 409.541211 341.165403 
z
" style="fill: #ed7d31"/>
    </g>
    <g id="text_31">
     <text style="font-size: 10px; font-family: 'Microsoft YaHei'; text-anchor: start" x="437.541211" y="348.165403" transform="rotate(-0 437.541211 348.165403)">FCR容量</text>
    </g>
    <g id="patch_129">
     <path d="M 409.541211 364.024583 
L 429.541211 364.024583 
L 429.541211 357.024583 
L 409.541211 357.024583 
z
" style="fill: #70ad47"/>
    </g>
    <g id="text_32">
     <text style="font-size: 10px; font-family: 'Microsoft YaHei'; text-anchor: start" x="437.541211" y="364.024583" transform="rotate(-0 437.541211 364.024583)">aFRR容量上调</text>
    </g>
    <g id="patch_130">
     <path d="M 521.438086 348.165403 
L 541.438086 348.165403 
L 541.438086 341.165403 
L 521.438086 341.165403 
z
" style="fill: #a5a5a5"/>
    </g>
    <g id="text_33">
     <text style="font-size: 10px; font-family: 'Microsoft YaHei'; text-anchor: start" x="549.438086" y="348.165403" transform="rotate(-0 549.438086 348.165403)">aFRR容量下调</text>
    </g>
    <g id="patch_131">
     <path d="M 521.438086 364.07302 
L 541.438086 364.07302 
L 541.438086 357.07302 
L 521.438086 357.07302 
z
" style="fill: #ffc000"/>
    </g>
    <g id="text_34">
     <text style="font-size: 10px; font-family: 'Microsoft YaHei'; text-anchor: start" x="549.438086" y="364.07302" transform="rotate(-0 549.438086 364.07302)">aFRR激活上调</text>
    </g>
    <g id="patch_132">
     <path d="M 633.334961 348.165403 
L 653.334961 348.165403 
L 653.334961 341.165403 
L 633.334961 341.165403 
z
" style="fill: #8064a2"/>
    </g>
    <g id="text_35">
     <text style="font-size: 10px; font-family: 'Microsoft YaHei'; text-anchor: start" x="661.334961" y="348.165403" transform="rotate(-0 661.334961 348.165403)">aFRR激活下调</text>
    </g>
   </g>
  </g>
 </g>
 <defs>
  <clipPath id="p6aba0de1fd">
   <rect x="58.174609" y="33.248125" width="935.945703" height="250.036841"/>
  </clipPath>
 </defs>
</svg>
